<svg width="36" height="31" viewBox="0 0 36 31" fill="none" xmlns="http://www.w3.org/2000/svg">
<path d="M29 22C29 22.5304 28.7893 23.0391 28.4142 23.4142C28.0391 23.7893 27.5304 24 27 24H9C8.46957 24 7.96086 23.7893 7.58579 23.4142C7.21071 23.0391 7 22.5304 7 22V11C7 10.4696 7.21071 9.96086 7.58579 9.58579C7.96086 9.21071 8.46957 9 9 9H13L15 6H21L23 9H27C27.5304 9 28.0391 9.21071 28.4142 9.58579C28.7893 9.96086 29 10.4696 29 11V22Z" stroke="#9586A8" stroke-width="1.5" stroke-linecap="round" stroke-linejoin="round"/>
<path d="M18 20C20.2091 20 22 18.2091 22 16C22 13.7909 20.2091 12 18 12C15.7909 12 14 13.7909 14 16C14 18.2091 15.7909 20 18 20Z" stroke="#9586A8" stroke-width="1.5" stroke-linecap="round" stroke-linejoin="round"/>
<path d="M1 8V3.5C1 2.39543 1.89543 1.5 3 1.5H7.5M1 23V27.5C1 28.6046 1.89543 29.5 3 29.5H7.5M35 7.5V3C35 1.89543 34.1046 1 33 1H28.5M35 23.5V28C35 29.1046 34.1046 30 33 30H28.5" stroke="#9586A8" stroke-width="1.5" stroke-linecap="round"/>
</svg>
