<svg width="20" height="19" viewBox="0 0 20 19" fill="none" xmlns="http://www.w3.org/2000/svg">
<path d="M10 18.35L8.55 17.05C6.86667 15.5333 5.475 14.225 4.375 13.125C3.275 12.025 2.4 11.0375 1.75 10.1625C1.1 9.2875 0.645833 8.48333 0.3875 7.75C0.129167 7.01667 0 6.26667 0 5.5C0 3.93333 0.525 2.625 1.575 1.575C2.625 0.525 3.93333 0 5.5 0C6.36667 0 7.19167 0.183333 7.975 0.55C8.75833 0.916667 9.43333 1.43333 10 2.1C10.5667 1.43333 11.2417 0.916667 12.025 0.55C12.8083 0.183333 13.6333 0 14.5 0C16.0667 0 17.375 0.525 18.425 1.575C19.475 2.625 20 3.93333 20 5.5C20 6.26667 19.8708 7.01667 19.6125 7.75C19.3542 8.48333 18.9 9.2875 18.25 10.1625C17.6 11.0375 16.725 12.025 15.625 13.125C14.525 14.225 13.1333 15.5333 11.45 17.05L10 18.35Z" fill="#FF6961"/>
</svg>
