<svg width="33" height="20" viewBox="0 0 33 20" fill="none" xmlns="http://www.w3.org/2000/svg">
<path d="M20.9916 2.13831H11.3657V17.8602H20.9916V2.13831Z" fill="#FF5F00"/>
<path d="M12.3572 10.0006C12.356 8.48668 12.6992 6.99236 13.3608 5.63069C14.0224 4.26902 14.985 3.07569 16.1759 2.14099C14.7009 0.981835 12.9296 0.261025 11.0644 0.0609423C9.19916 -0.13914 7.31527 0.189577 5.62801 1.00953C3.94076 1.82947 2.51823 3.10757 1.523 4.69774C0.527775 6.28792 0 8.12601 0 10.0019C0 11.8779 0.527775 13.716 1.523 15.3061C2.51823 16.8963 3.94076 18.1744 5.62801 18.9944C7.31527 19.8143 9.19916 20.143 11.0644 19.9429C12.9296 19.7429 14.7009 19.0221 16.1759 17.8629C14.9847 16.9279 14.0218 15.7341 13.3602 14.3719C12.6986 13.0098 12.3556 11.5149 12.3572 10.0006Z" fill="#F24E1E"/>
<path d="M31.3979 16.1966V15.8744H31.5368V15.8077H31.2063V15.8744H31.3368V16.1966H31.3979ZM32.0395 16.1966V15.8077H31.9395L31.8228 16.0855L31.7062 15.8077H31.6062V16.1966H31.6784V15.9022L31.7867 16.1549H31.8617L31.97 15.9022V16.1966H32.0395Z" fill="#F79E1B"/>
<path d="M32.3533 10.0006C32.3532 11.8767 31.8253 13.7149 30.8299 15.3051C29.8345 16.8953 28.4118 18.1734 26.7243 18.9932C25.0369 19.8131 23.1528 20.1416 21.2874 19.9412C19.4221 19.7408 17.6507 19.0197 16.1759 17.8601C17.3663 16.9246 18.3287 15.731 18.9905 14.3692C19.6522 13.0075 19.9961 11.5132 19.9961 9.99919C19.9961 8.48517 19.6522 6.99092 18.9905 5.62918C18.3287 4.26743 17.3663 3.07377 16.1759 2.13824C17.6507 0.978723 19.4221 0.257562 21.2874 0.057192C23.1528 -0.143178 25.0369 0.185328 26.7243 1.00516C28.4118 1.82499 29.8345 3.10307 30.8299 4.69329C31.8253 6.28352 32.3532 8.12173 32.3533 9.9978V10.0006Z" fill="#FFD25F"/>
</svg>
