<svg width="24" height="24" viewBox="0 0 24 24" fill="none" xmlns="http://www.w3.org/2000/svg">
<path d="M5.14282 5H22.2857L20.5714 15.2857H6.85711L5.14282 5Z" fill="#7203FF" fill-opacity="0.5" stroke="#7203FF" stroke-width="1.5" stroke-linecap="round" stroke-linejoin="round"/>
<path d="M8.57145 20.9999C9.20263 20.9999 9.7143 20.4883 9.7143 19.8571C9.7143 19.2259 9.20263 18.7142 8.57145 18.7142C7.94026 18.7142 7.42859 19.2259 7.42859 19.8571C7.42859 20.4883 7.94026 20.9999 8.57145 20.9999Z" fill="#7203FF" fill-opacity="0.5" stroke="#7203FF" stroke-width="1.5" stroke-linecap="round" stroke-linejoin="round"/>
<path d="M18.8571 20.9999C19.4883 20.9999 19.9999 20.4883 19.9999 19.8571C19.9999 19.2259 19.4883 18.7142 18.8571 18.7142C18.2259 18.7142 17.7142 19.2259 17.7142 19.8571C17.7142 20.4883 18.2259 20.9999 18.8571 20.9999Z" fill="#7203FF" fill-opacity="0.5" stroke="#7203FF" stroke-width="1.5" stroke-linecap="round" stroke-linejoin="round"/>
<path d="M5.1428 5H1.71423H5.1428Z" fill="#7203FF" fill-opacity="0.5"/>
<path d="M5.1428 5H1.71423" stroke="#7203FF" stroke-width="1.5" stroke-linecap="round" stroke-linejoin="round"/>
</svg>
