<svg width="24" height="24" viewBox="0 0 24 24" fill="none" xmlns="http://www.w3.org/2000/svg">
<path d="M5.14282 5H22.2857L20.5714 15.2857H6.85711L5.14282 5Z" stroke="#9586A8" stroke-width="1.5" stroke-linecap="round" stroke-linejoin="round"/>
<path d="M8.57132 20.9999C9.20251 20.9999 9.71418 20.4883 9.71418 19.8571C9.71418 19.2259 9.20251 18.7142 8.57132 18.7142C7.94014 18.7142 7.42847 19.2259 7.42847 19.8571C7.42847 20.4883 7.94014 20.9999 8.57132 20.9999Z" stroke="#9586A8" stroke-width="1.5" stroke-linecap="round" stroke-linejoin="round"/>
<path d="M18.8572 20.9999C19.4884 20.9999 20.0001 20.4883 20.0001 19.8571C20.0001 19.2259 19.4884 18.7142 18.8572 18.7142C18.226 18.7142 17.7144 19.2259 17.7144 19.8571C17.7144 20.4883 18.226 20.9999 18.8572 20.9999Z" stroke="#9586A8" stroke-width="1.5" stroke-linecap="round" stroke-linejoin="round"/>
<path d="M5.14293 5H1.71436" stroke="#9586A8" stroke-width="1.5" stroke-linecap="round" stroke-linejoin="round"/>
</svg>
