<svg width="414" height="725" viewBox="0 0 414 725" fill="none" xmlns="http://www.w3.org/2000/svg">
<path d="M56.7588 532.463C-33.448 480.915 247.682 312.65 230.557 202.3C214.162 96.6596 83.8194 28.2581 149.399 -75.5304C251.272 -236.757 660.492 -3.31563 711.518 149.13C768.824 320.34 207.419 618.558 56.7588 532.463Z" fill="#7E19FF" fill-opacity="0.6"/>
<path d="M671.88 334.614C565.917 352.311 517.057 267.7 427.409 208.523C341.587 151.872 244.32 142.417 223.682 41.7045C191.623 -114.745 454.697 -185.634 599.878 -118.977C762.93 -44.1152 848.856 305.056 671.88 334.614Z" fill="#6F12E7" fill-opacity="0.8"/>
<path d="M738.88 309.614C632.917 327.311 584.057 242.7 494.409 183.523C408.587 126.872 311.32 117.417 290.682 16.7045C258.623 -139.745 521.697 -210.634 666.878 -143.977C829.93 -69.1152 915.856 280.056 738.88 309.614Z" stroke="#ACFF86" stroke-opacity="0.6"/>
</svg>
