<svg width="171" height="182" viewBox="0 0 171 182" fill="none" xmlns="http://www.w3.org/2000/svg">
<path d="M87.0444 145.618C95.5704 149.463 105.706 154.728 115.692 161.556C113.595 164.666 111.081 167.514 108.185 170.022L108.183 170.024C108.12 170.079 108.056 170.134 107.995 170.187L108.299 170.543L107.995 170.187C91.7613 184.082 68.2784 183.221 53.5323 168.88C61.7037 167.01 69.6223 163.145 76.5347 157.23L76.5357 157.229L76.7834 157.016L76.7846 157.015C80.6979 153.626 84.0694 149.749 86.854 145.532L87.0443 145.618L87.2434 145.177L87.0444 145.618ZM192.305 60.767L192.306 60.7661C198.089 55.7579 202.645 49.6418 205.752 42.846C209.617 49.0578 211.347 56.3944 210.648 63.9274C209.814 72.9206 205.619 81.1054 198.837 86.979L198.837 86.9792C198.789 87.0211 198.738 87.0645 198.688 87.1076L198.683 87.1111C195.4 89.9207 191.749 91.9736 187.934 93.2987C184.146 85.4871 181.331 78.4579 179.439 73.2965L178.99 73.4613L179.439 73.2964C178.989 72.0675 178.538 70.7932 178.09 69.501C183.081 67.4674 187.815 64.6111 192.076 60.9646L192.077 60.9637L192.305 60.767ZM200.654 147.234L187.398 158.578L169.196 136.357L169.195 136.355C166.666 133.294 162.186 132.926 159.188 135.539L159.517 135.916L159.188 135.539C156.203 138.143 155.827 142.723 158.349 145.777C158.349 145.777 158.35 145.777 158.35 145.777L176.485 167.918L162.638 179.768C161.566 180.686 160.184 181.121 158.804 180.978C157.415 180.835 156.142 180.119 155.278 178.989C137.789 156.115 112.075 141.232 93.1206 132.637C95.0426 126.934 96.044 120.936 96.0248 114.891C100.003 111.186 103.299 106.839 105.783 102.045C107.428 101.438 109.035 100.732 110.605 99.9514L139.748 111.996L140.864 112.457L140.401 111.342L129.732 85.6464C136.988 84.0717 143.865 80.6606 149.717 75.6517L149.718 75.6512L149.929 75.4702L149.93 75.4687C150.979 74.5603 151.984 73.6095 152.945 72.6172C156.728 73.1482 160.556 73.2161 164.348 72.8422C164.956 74.6272 165.603 76.4665 166.296 78.3566C172.504 95.2976 183.777 119.829 201.178 139.587C202.117 140.654 202.594 142.072 202.495 143.516C202.397 144.96 201.731 146.302 200.655 147.233C200.655 147.233 200.654 147.233 200.654 147.234ZM147.725 56.2519L147.338 56.1073L147.123 56.4604C145.369 59.3431 143.168 61.9527 140.588 64.1873L140.513 64.2514L140.439 64.3151C134.55 69.3555 127.31 71.9982 119.983 71.9011L119.688 71.8971L119.542 72.1546C117.505 75.7498 114.854 78.9982 111.721 81.7113L111.72 81.7117C107.063 85.756 101.437 88.4933 95.5627 89.6397L95.272 89.6964L95.1821 89.9787C93.3771 95.6455 90.0208 100.762 85.4422 104.727C84.1382 105.85 82.7602 106.871 81.3186 107.765L81.0316 107.944L81.0896 108.276C83.4552 121.843 78.3341 136.343 67.3797 145.83C67.317 145.884 67.2551 145.938 67.1935 145.991C50.84 159.986 27.0875 158.516 14.1238 142.741C4.21067 130.678 3.21184 113.499 10.9789 99.5508L11.1786 99.1922L10.8658 98.9265C9.65315 97.896 8.52659 96.7494 7.49138 95.4899C2.66228 89.6133 0.49594 82.0541 1.40146 74.1953C2.28964 66.4899 6.04221 59.4185 11.9717 54.2825C13.3235 53.1169 14.7398 52.0809 16.2239 51.1829L16.603 50.9535L16.4209 50.5496C12.8741 42.6831 11.6587 33.7827 12.9954 24.792L12.5009 24.7184L12.9954 24.7919C14.7412 13.0484 20.7052 2.24641 29.7918 -5.62226L29.793 -5.62331C29.8652 -5.68624 29.9389 -5.74932 30.0147 -5.81413C38.5208 -13.0938 49.1323 -17.2333 59.9247 -17.4846C68.3455 -17.6806 76.4789 -15.5186 83.4388 -11.3168L83.8135 -11.0906L84.0873 -11.4321C85.776 -13.5382 87.6553 -15.4901 89.7116 -17.2708C89.7791 -17.3291 89.8465 -17.3874 89.9134 -17.4447C107.527 -32.5183 133.102 -30.9467 147.057 -13.9666C148.022 -12.7917 148.917 -11.5594 149.737 -10.2757L149.958 -9.92879L150.341 -10.0795C155.876 -12.258 161.837 -13.0325 167.647 -12.2758C175.909 -11.1996 183.346 -7.09024 188.592 -0.70558L188.883 -0.944767L188.592 -0.70557C194.447 6.41771 197.071 15.5877 195.972 25.1238C194.891 34.5064 190.316 43.1217 183.088 49.3812L183.085 49.3832C183.032 49.4302 182.977 49.4769 182.92 49.5256C172.832 58.1596 159.227 60.548 147.725 56.2519Z" fill="#CBF265" stroke="#C7E96F"/>
</svg>
